<svg xmlns="http://www.w3.org/2000/svg" viewBox="0 0 486.45 138.05"><defs><style>.cls-1,.cls-2,.cls-3,.cls-4{stroke:#000;stroke-miterlimit:10;stroke-width:0.75px;}.cls-2,.cls-4{fill:#a85cff;}.cls-3,.cls-4{font-size:39.41px;font-family:MadroneStd, Madrone Std;}</style></defs><title>getstaffedJZ</title><g id="Layer_2" data-name="Layer 2"><path class="cls-1" d="M296.24,146.67q0-1.26.63-1.26a2.12,2.12,0,0,1,1.26.63,79.15,79.15,0,0,0,50.76,19c11.27,0,16.66-1.54,16.66-4.9,0-4.06-38.09-3.5-45-5.32-11.76-3.08-24.43-10.22-24.43-19.74,0-15.75,17-20.93,28.7-20.93,14.71,0,20.38,1.12,32.77,4.69a32.59,32.59,0,0,0,8.4,1.26c2,0,11.48-4.83,11.76-4.83h.77c.21,0,.35.07.35.35v17.15c0,.49-.14.77-.42.77a1.54,1.54,0,0,1-.84-.42c-9.31-6.65-26.25-16-46.83-16-3.79,0-17.09.07-17.09,4.62,0,2.17,1.82,3.78,28.08,3.78,33.46,0,42.7,16.73,42.7,22.05,0,20.58-25.83,20.58-37,20.58a82.46,82.46,0,0,1-26.89-4.48,54.11,54.11,0,0,0-10.64-2.45,14,14,0,0,0-10.5,5c-.63.7-.63.7-2.17.7-.63,0-1-.28-1-.84Z" transform="translate(-290.38 -62.19)"/><path class="cls-1" d="M430.09,156.61c0,2.73,2,6.23,4.2,6.23,3.22,0,10.15-4.2,10.15-14.07h2.66c0,14.14-9,19.32-22.75,19.32-8,0-20.51,0-20.51-12.81v-19c0-4.83-1.82-4.83-13.09-4.83v-2.59c10.15,0,22.75,0,25.76-11.9a1.55,1.55,0,0,1,1.68-1.33h10.36c.84,0,1.19.49,1.19,1.4v11.83h15.05v2.59c-11.06,0-14.7,0-14.7,5.11Z" transform="translate(-290.38 -62.19)"/><path class="cls-1" d="M544.41,149.33c0,18.76-16,18.76-29.34,18.76-4.76,0-11.13,0-14.91-8.61-3.43,4.2-9.45,8.75-23.1,8.75-11.62,0-26.81,0-26.81-11,0-9,19-13.09,26.46-13.23,14.49-.21,24.57-3.5,24.57-7.63,0-3.71-10.5-5-16.66-5-2,0-4.69,2.17-4.69,4.48s-3.71,6.37-6.23,6.65l-11.34,1.26c-3.36.35-9.38-2.24-9.38-6,0-4.2,8-9,18.2-9h38.5c12.18,0,19,4.48,19,11.55v20.09a3.39,3.39,0,0,0,3.22,2.8c2.38,0,10-4.48,10-13.79Zm-42.57-9.24c-.56,1.68-4.06,3.5-5.74,3.92-4.48,1.19-17.5,4.62-17.5,13.3,0,1.82,2.52,6.37,8,6.37,3.57,0,11.41-4.48,13.65-8.19,1.68-2.73,1.68-4.83,1.68-15.4Z" transform="translate(-290.38 -62.19)"/><path class="cls-1" d="M593.34,115.59c3,0,8,3.22,8,6.65,0,1.75-3,3.85-6.09,3.85-6.58,0-12.32,0-15.4-4.27-1.19-1.75-2-2.45-2.66-2.45a1.17,1.17,0,0,0-1.12,1.26,5,5,0,0,0,.63,2c2.8,6,8.26,6,21.28,6v2.66c-11.48,0-12.74,0-12.74,4.55v25.2c0,4.34,4.62,4.34,13,4.34v2.66H545.45v-2.66c11.9,0,13.23,0,13.23-4.27V135.68c0-4.34-2-4.34-12.6-4.34v-2.66h12.6c0-4.76,0-13.09,10.36-13.09Z" transform="translate(-290.38 -62.19)"/><path class="cls-1" d="M648.22,115.59c3,0,8,3.22,8,6.65,0,1.75-3,3.85-6.09,3.85-6.58,0-12.32,0-15.4-4.27-1.19-1.75-2-2.45-2.66-2.45a1.17,1.17,0,0,0-1.12,1.26,5,5,0,0,0,.63,2c2.8,6,8.26,6,21.28,6v2.66c-11.48,0-12.74,0-12.74,4.55v25.2c0,4.34,4.62,4.34,13,4.34v2.66H600.34v-2.66c11.9,0,13.23,0,13.23-4.27V135.68c0-4.34-2-4.34-12.6-4.34v-2.66h12.6c0-4.76,0-13.09,10.36-13.09Z" transform="translate(-290.38 -62.19)"/><path class="cls-1" d="M662.75,164.9l10.07,3.83c2.23.85,4.75-.66,5.7-3.15l13.33-35c1.69-4.44.34-5-11.89-9.69l.92-2.42,67.58,25.73c18.65,7.1,31.76,27.15,27,39.58-4.19,11-21.71,18.63-45.39,9.61l-68.3-26ZM712,183.28c10.14,3.86,19.3,7.35,27.58-14.37s-2-25.72-11-29.13Z" transform="translate(-290.38 -62.19)"/><path class="cls-1" d="M667.3,103.58c-1.94-1,3.31-4.82,4.75-12.11s-1.87-12.37-1.26-12.84c0,0,0,0,.07,0,2.3-.88,8.4,3.28,9.71,9,1.17,5.17-1.89,10-2.56,11.07a6,6,0,0,1-.45.67C675,102.51,669,104.44,667.3,103.58Z" transform="translate(-290.38 -62.19)"/><path class="cls-1" d="M392.22,267.58" transform="translate(-290.38 -62.19)"/><path class="cls-2" d="M292.67,149.15q0-1.26.63-1.26a2.12,2.12,0,0,1,1.26.63,79.12,79.12,0,0,0,50.75,19c11.27,0,16.66-1.54,16.66-4.9,0-4.06-38.08-3.5-45-5.32-11.76-3.08-24.43-10.22-24.43-19.74,0-15.75,17-20.93,28.7-20.93,14.7,0,20.37,1.12,32.76,4.69a32.59,32.59,0,0,0,8.4,1.26c2,0,11.49-4.83,11.77-4.83h.77c.21,0,.35.07.35.35v17.15c0,.49-.14.77-.42.77a1.54,1.54,0,0,1-.84-.42c-9.31-6.65-26.26-16-46.84-16-3.78,0-17.08.07-17.08,4.62,0,2.17,1.82,3.78,28.07,3.78,33.47,0,42.71,16.73,42.71,22.05,0,20.58-25.84,20.58-37,20.58A82.35,82.35,0,0,1,317,166.16a54.11,54.11,0,0,0-10.64-2.45,14,14,0,0,0-10.5,5c-.63.7-.63.7-2.17.7-.63,0-1-.28-1-.84Z" transform="translate(-290.38 -62.19)"/><path class="cls-2" d="M426.52,159.09c0,2.73,2,6.23,4.2,6.23,3.22,0,10.15-4.2,10.15-14.07h2.66c0,14.14-9,19.32-22.75,19.32-8,0-20.52,0-20.52-12.81v-19c0-4.83-1.82-4.83-13.09-4.83V131.3c10.15,0,22.76,0,25.77-11.9a1.55,1.55,0,0,1,1.68-1.33H425c.84,0,1.19.49,1.19,1.4V131.3h15.05v2.59c-11.06,0-14.7,0-14.7,5.11Z" transform="translate(-290.38 -62.19)"/><path class="cls-2" d="M540.83,151.81c0,18.76-16,18.76-29.33,18.76-4.76,0-11.13,0-14.91-8.61-3.43,4.2-9.45,8.75-23.1,8.75-11.62,0-26.81,0-26.81-11,0-9,19-13.09,26.46-13.23,14.49-.21,24.57-3.5,24.57-7.63,0-3.71-10.5-5-16.66-5-2,0-4.69,2.17-4.69,4.48s-3.71,6.37-6.23,6.65l-11.34,1.26c-3.36.35-9.38-2.24-9.38-6,0-4.2,8-9,18.2-9h38.5c12.18,0,19,4.48,19,11.55V162.8a3.39,3.39,0,0,0,3.22,2.8c2.38,0,9.94-4.48,9.94-13.79Zm-42.56-9.24c-.56,1.68-4.06,3.5-5.74,3.92-4.48,1.19-17.5,4.62-17.5,13.3,0,1.82,2.52,6.37,8.05,6.37,3.57,0,11.41-4.48,13.65-8.19,1.68-2.73,1.68-4.83,1.68-15.4Z" transform="translate(-290.38 -62.19)"/><path class="cls-2" d="M589.76,118.07c3,0,8.06,3.22,8.06,6.65,0,1.75-3,3.85-6.1,3.85-6.58,0-12.32,0-15.4-4.27-1.19-1.75-2-2.45-2.66-2.45a1.17,1.17,0,0,0-1.12,1.26,5,5,0,0,0,.63,2c2.8,6,8.26,6,21.28,6v2.66c-11.48,0-12.74,0-12.74,4.55v25.2c0,4.34,4.62,4.34,12.95,4.34v2.66H541.88v-2.66c11.9,0,13.23,0,13.23-4.27V138.16c0-4.34-2-4.34-12.6-4.34v-2.66h12.6c0-4.76,0-13.09,10.36-13.09Z" transform="translate(-290.38 -62.19)"/><path class="cls-2" d="M644.65,118.07c3,0,8.05,3.22,8.05,6.65,0,1.75-3,3.85-6.09,3.85-6.58,0-12.32,0-15.4-4.27-1.19-1.75-2-2.45-2.66-2.45a1.17,1.17,0,0,0-1.12,1.26,5,5,0,0,0,.63,2c2.8,6,8.26,6,21.28,6v2.66c-11.48,0-12.74,0-12.74,4.55v25.2c0,4.34,4.62,4.34,12.95,4.34v2.66H596.76v-2.66c11.9,0,13.23,0,13.23-4.27V138.16c0-4.34-2-4.34-12.6-4.34v-2.66H610c0-4.76,0-13.09,10.37-13.09Z" transform="translate(-290.38 -62.19)"/><path class="cls-2" d="M659.18,167.38l10.07,3.84c2.22.84,4.75-.67,5.69-3.15l13.33-35c1.7-4.45.35-5-11.89-9.7l.93-2.42,67.58,25.73c18.64,7.1,31.76,27.16,27,39.59-4.18,11-21.7,18.62-45.38,9.61l-68.3-26Zm49.25,18.38c10.14,3.86,19.3,7.35,27.57-14.37s-2-25.72-11-29.13Z" transform="translate(-290.38 -62.19)"/><path class="cls-2" d="M663.72,106.06c-1.93-1,3.32-4.82,4.76-12.11s-1.87-12.37-1.27-12.84c0,0,0,0,.08,0,2.3-.88,8.4,3.28,9.7,9,1.18,5.17-1.88,10-2.55,11.07a6.54,6.54,0,0,1-.45.67C671.45,105,665.42,106.92,663.72,106.06Z" transform="translate(-290.38 -62.19)"/><path class="cls-2" d="M388.65,270.06" transform="translate(-290.38 -62.19)"/><text class="cls-3" transform="translate(1.99 33.09)">Get</text><text class="cls-4" transform="translate(0.38 34.62)">Get</text></g></svg>